# xmcd
#
# Track frame offsets: 
#        150
#        1580
#        21752
#        43460
#        66340
#        84860
#        99560
#        126260
#        149810
#        169610
#
# Disc length: 2712 seconds
#
# Revision: 4
# Processed by: cddbd v1.5.2PL0 Copyright (c) Steve Scherf et al.
# Submitted via: ExactAudioCopy v1.0b2
#
DISCID=830a960a
DTITLE=Gregor Hilden - I'll play the Blues for You
DYEAR=1900
DGENRE=blues
TTITLE0=Welcome
TTITLE1=I'll play the blues for you
TTITLE2=Someone else is steppin' in
TTITLE3='59 Blues Affair
TTITLE4=Song for Larry C
TTITLE5=Uranus
TTITLE6=It's a Man's World
TTITLE7=Ode to Billy Joe
TTITLE8=Crazy Town Shuffle
TTITLE9=Musionary Dreams
EXTD=
EXTT0=
EXTT1=
EXTT2=
EXTT3=
EXTT4=
EXTT5=
EXTT6=
EXTT7=
EXTT8=
EXTT9=
PLAYORDER=
